<?xml version="1.0" encoding="UTF-8"?>
<svg id="_레이어_1" data-name="레이어_1" xmlns="http://www.w3.org/2000/svg" version="1.1" viewBox="0 0 24 24">
  <!-- Generator: Adobe Illustrator 29.5.0, SVG Export Plug-In . SVG Version: 2.1.0 Build 137)  -->
  <defs>
    <style>
      .st0 {
        fill: none;
        stroke: #000;
        stroke-linecap: round;
        stroke-linejoin: round;
      }
    </style>
  </defs>
  <g>
    <path class="st0" d="M2,11C2,5.48,6.48,2,12,2c5.14,0,9.37,3.87,9.94,8.86"/>
    <polygon points="20.1 8.98 21.91 10.56 23.49 8.76 23.58 10.2 22 12 20.2 10.42 20.1 8.98"/>
  </g>
  <g>
    <path class="st0" d="M22,13c0,5.52-4.48,9-10,9-5.14,0-9.37-3.87-9.94-8.86"/>
    <polygon points="3.9 15.02 2.09 13.44 .51 15.24 .42 13.8 2 12 3.8 13.58 3.9 15.02"/>
  </g>
  <path d="M11.74,16.28c-.47,0-.92-.04-1.33-.11s-.79-.19-1.15-.34l.15-1.18c.43.18.84.32,1.25.42s.79.14,1.17.14c.55,0,.95-.1,1.22-.29s.4-.48.4-.87c0-.5-.25-.86-.76-1.09l-1.44-.66c-.57-.26-1-.57-1.3-.93s-.45-.81-.45-1.35c0-.73.22-1.29.66-1.69s1.06-.6,1.86-.6c.56,0,1.05.08,1.48.25s.84.43,1.24.8l-.82.83c-.34-.28-.67-.49-.96-.61s-.61-.19-.93-.19c-.4,0-.71.1-.93.29s-.33.48-.33.86c0,.27.07.49.22.66s.36.32.64.45l1.22.57c.62.29,1.09.62,1.41.98s.48.83.48,1.4c0,.75-.25,1.32-.74,1.7s-1.23.57-2.23.57ZM11.7,18.04V5.96h.81v12.07h-.81Z"/>
</svg>