<?xml version="1.0" encoding="UTF-8"?>
<svg id="_레이어_1" data-name="레이어_1" xmlns="http://www.w3.org/2000/svg" version="1.1" viewBox="0 0 24 24">
  <!-- Generator: Adobe Illustrator 29.5.0, SVG Export Plug-In . SVG Version: 2.1.0 Build 137)  -->
  <defs>
    <style>
      .st0 {
        fill: none;
        stroke: #000;
        stroke-linecap: round;
        stroke-linejoin: round;
      }
    </style>
  </defs>
  <g>
    <path class="st0" d="M2,11C2,5.48,6.48,2,12,2c5.14,0,9.37,3.87,9.94,8.86"/>
    <polygon points="20.1 8.98 21.91 10.56 23.49 8.76 23.58 10.2 22 12 20.2 10.42 20.1 8.98"/>
  </g>
  <g>
    <path class="st0" d="M22,13c0,5.52-4.48,9-10,9-5.14,0-9.37-3.87-9.94-8.86"/>
    <polygon points="3.9 15.02 2.09 13.44 .51 15.24 .42 13.8 2 12 3.8 13.58 3.9 15.02"/>
  </g>
  <path d="M14.93,15.57c-.02.05-.04.1-.07.13s-.07.06-.13.08-.12.03-.2.04-.18.01-.3.01-.22,0-.31-.01-.15-.02-.21-.04-.1-.04-.12-.08-.05-.08-.06-.13l-.71-2.56h-1.7l-.66,2.56c-.01.05-.03.1-.06.13s-.07.06-.12.08-.12.03-.2.04-.18.01-.31.01-.24,0-.32-.01-.16-.02-.21-.04-.1-.04-.13-.08-.05-.08-.06-.13l-.74-2.56h-1.3s-.09-.03-.12-.08-.05-.15-.05-.28c0-.12.02-.21.05-.27s.08-.08.12-.08h1.1l-.26-.93h-.84s-.09-.03-.12-.08-.05-.15-.05-.28c0-.12.02-.21.05-.27s.08-.08.12-.08h.63l-.6-2.09c-.02-.09-.04-.16-.04-.21s.01-.09.05-.12.09-.04.16-.05.17-.01.3-.01.22,0,.29,0,.12.02.16.03.06.04.08.06.02.06.03.11l.61,2.27h2.14l.58-2.26s.03-.08.04-.11.05-.05.08-.07.09-.03.17-.04.17-.01.28-.01c.11,0,.2,0,.26.01s.12.02.16.04.07.04.08.07.03.07.04.11l.62,2.26h2.2l.6-2.27s.02-.07.04-.1.04-.05.07-.07.09-.03.16-.04.16-.01.27-.01.21,0,.28.01.12.03.15.06.05.07.04.12-.01.12-.03.21l-.6,2.09h.63c.05,0,.1.03.13.08s.05.15.05.27c0,.14-.02.23-.05.28s-.08.08-.12.08h-.84l-.27.93h1.11c.05,0,.1.03.13.08s.05.15.05.27c0,.13-.02.23-.05.28s-.08.08-.12.08h-1.31l-.73,2.56ZM9.14,12.3h1.28l.23-.93h-1.76l.25.93ZM9.79,14.74h0l.44-1.73h-.91l.46,1.73ZM11.3,12.3h1.32l-.26-.93h-.83l-.23.93ZM11.93,9.84l-.21.81h.45l-.22-.81h-.01ZM13.61,12.3h1.32l.25-.93h-1.82l.26.93ZM14.28,14.74h.01l.45-1.73h-.94l.47,1.73Z"/>
</svg>