<?xml version="1.0" encoding="UTF-8"?>
<svg id="_레이어_1" data-name="레이어_1" xmlns="http://www.w3.org/2000/svg" version="1.1" viewBox="0 0 24 24">
  <!-- Generator: Adobe Illustrator 29.5.0, SVG Export Plug-In . SVG Version: 2.1.0 Build 137)  -->
  <defs>
    <style>
      .st0 {
        fill: none;
        stroke: #000;
        stroke-linecap: round;
        stroke-linejoin: round;
      }
    </style>
  </defs>
  <g>
    <path class="st0" d="M2,11C2,5.48,6.48,2,12,2c5.14,0,9.37,3.87,9.94,8.86"/>
    <polygon points="20.1 8.98 21.91 10.56 23.49 8.76 23.58 10.2 22 12 20.2 10.42 20.1 8.98"/>
  </g>
  <g>
    <path class="st0" d="M22,13c0,5.52-4.48,9-10,9-5.14,0-9.37-3.87-9.94-8.86"/>
    <polygon points="3.9 15.02 2.09 13.44 .51 15.24 .42 13.8 2 12 3.8 13.58 3.9 15.02"/>
  </g>
  <path d="M8.87,11.58v-.81h4.79v.81h-4.79ZM8.87,13.28v-.81h4.79v.81h-4.79ZM12.96,16.28c-2.27,0-3.41-1.43-3.41-4.29,0-1.36.28-2.41.84-3.15s1.35-1.12,2.37-1.12c.56,0,1.05.11,1.46.34s.72.54.91.95l-.98.74c-.16-.3-.35-.53-.59-.7s-.5-.25-.78-.25c-.6,0-1.08.27-1.43.81s-.54,1.31-.54,2.31c0,2.18.79,3.27,2.36,3.27.53,0,1.05-.12,1.56-.35l.27,1.03c-.65.27-1.32.4-2.03.4Z"/>
</svg>